# xmcd
#
# Track frame offsets: 
#        150
#        19620
#        34230
#        50947
#        67330
#        81725
#        95397
#        111422
#        127355
#        144942
#        158485
#
# Disc length: 2301 seconds
#
# Revision: 0
# Processed by: cddbd v1.4PL0 Copyright (c) Steve Scherf et al.
# Submitted via: ExactAudioCopy v0.95a3
#
DISCID=a508fb0b
DTITLE=Al Hunter - Neon Cowboy
DYEAR=1900
DGENRE=Country
TTITLE0=Highway Song
TTITLE1=Honky Tonk Song
TTITLE2=Evening Sun
TTITLE3=Still Loving You
TTITLE4=Let Somebody Else Drive
TTITLE5=Neon Cowboy
TTITLE6=You Stioll Got That Look In Your Eyes
TTITLE7=Jealous Guy
TTITLE8=Deeper Shade of Blue
TTITLE9=Country Music
TTITLE10=Someone'll End Up With a Broken Heart
EXTD=
EXTT0=
EXTT1=
EXTT2=
EXTT3=
EXTT4=
EXTT5=
EXTT6=
EXTT7=
EXTT8=
EXTT9=
EXTT10=
PLAYORDER=
